<svg xmlns="http://www.w3.org/2000/svg" enable-background="new 0 0 24 24" viewBox="0 0 24 24" fill="white"><path d="M4,16c-2.206,0-4-1.794-4-4s1.794-4,4-4s4,1.794,4,4S6.206,16,4,16z M4,9c-1.654,0-3,1.346-3,3s1.346,3,3,3s3-1.346,3-3S5.654,9,4,9z"/><path d="M9.25,16c-2.206,0-4-1.794-4-4s1.794-4,4-4s4,1.794,4,4S11.456,16,9.25,16z M9.25,9c-1.654,0-3,1.346-3,3s1.346,3,3,3s3-1.346,3-3S10.904,9,9.25,9z"/><path d="M14.75,16c-2.206,0-4-1.794-4-4s1.794-4,4-4s4,1.794,4,4S16.956,16,14.75,16z M14.75,9c-1.654,0-3,1.346-3,3s1.346,3,3,3s3-1.346,3-3S16.404,9,14.75,9z"/><path d="M20,16c-2.206,0-4-1.794-4-4s1.794-4,4-4s4,1.794,4,4S22.206,16,20,16z M20,9c-1.654,0-3,1.346-3,3s1.346,3,3,3s3-1.346,3-3S21.654,9,20,9z"/></svg>