<svg xmlns="http://www.w3.org/2000/svg" width="512" height="512" fill-rule="evenodd" clip-rule="evenodd" image-rendering="optimizeQuality" shape-rendering="geometricPrecision" text-rendering="geometricPrecision" viewBox="0 0 512 512"><path fill="white" d="M257 72h-3c-20 0-41 1-61 1h-1c-15 1-27 2-36 3l26 112c17 51 42 101 73 102 31-1 56-50 73-102l26-112c-9-1-20-2-36-3h-1c-20-1-40-1-61-1zm-1 266c-17 1-30 9-39 20-15 19-20 48-22 65 17 0 38 1 62 1 23 0 45 0 62-1-2-17-8-46-22-65-9-11-22-19-39-20zm1 113h-88S18 457 13 307C8 171-4 48 187 48h135c191 0 179 123 174 259-5 150-156 144-156 144h-85zm139-274l-18 245c65-8 95-55 95-157 0-110-7-139-42-164-8-6-17-10-28-14-2 19-4 52-7 90zm-280 0l18 245c-65-8-95-55-95-157 0-110 7-139 42-164 8-6 17-10 28-14 2 19 4 52 7 90z"/></svg>