<svg xmlns="http://www.w3.org/2000/svg" width="512" height="512" fill-rule="evenodd" clip-rule="evenodd" image-rendering="optimizeQuality" shape-rendering="geometricPrecision" text-rendering="geometricPrecision" viewBox="0 0 512 512"><path fill="white" d="M254 400c23 0 55-2 86-8 60-12 108-31 122-39s26-11 19-34-46-107-104-167c-9-9-17-17-25-24-9-8-48-37-69-51-2-1-5-3-7-4-10-6-16-8-21-9-5 1-11 3-21 9-2 1-5 3-7 4-21 13-61 43-69 51-7 7-16 15-25 24-58 60-97 144-104 167s5 26 19 34 62 27 122 39c31 6 63 8 86 8zm126-21v-1h-1V220l-38 21-10 6v143l-18 3h-3V260l-56 34-56-34v133h-3l-18-3V247l-10-6-38-21v158h-1v1l-15-6-4-1V183l1 1v-2l49 30 18 10V117h3l74 43 74-43h3v105l18-10 49-30v2l1-1v189l-4 1-15 6zM177 113zm154 0zm-77 156l56-34v-83l-55 31-1 1-1-1-55-31v83l56 34zm185-66c-12-16-27-35-44-53-35-37-77-74-114-92-1-1-3-1-4-2-4-2-7-3-10-4-5-2-9-3-13-3s-8 1-13 3c-3 1-6 3-10 4-1 1-2 1-4 2-37 18-79 55-114 92-17 18-32 37-44 53-1 1-1 2-2 2-1 1-1 2-2 2-54 78-55 117-55 117s-4 20 11 31 106 58 227 58h10c121 0 212-47 227-58s11-31 11-31-1-39-55-117c-1-1-1-2-2-2-1-1-1-2-2-2z"/></svg>