<svg xmlns="http://www.w3.org/2000/svg" width="512" height="512" fill-rule="evenodd" clip-rule="evenodd" image-rendering="optimizeQuality" shape-rendering="geometricPrecision" text-rendering="geometricPrecision" viewBox="0 0 512 512"><path fill="white" d="M256 346c22 7 21-78 103-98 61-15 80-23 88-42l9-19s-4 85-17 128c-13 42-39 109-183 111-145-1-171-68-183-111-13-43-17-128-17-128l9 19c9 19 27 26 88 42 82 20 81 105 103 98zm-68 108c20 4 44 5 68 5s48-2 68-5c41-6 78-17 101-34 54-38 77-103 77-173S464 91 381 68c-18-5-37-8-56-10 0 0-8-1-20-2-17-1-34-2-49-2s-32 0-49 2c-13 1-20 2-20 2-19 2-39 5-56 10C49 90 10 177 10 247s24 134 77 173c23 16 60 28 101 34zm61-370h14c21 0 63 3 108 19 64 23 53 53 53 53s-108 42-140 79c-20 23-26 36-28 43-2-7-8-20-28-43-32-37-140-79-140-79s-11-30 53-53c45-16 87-19 108-19z"/></svg>