<svg xmlns="http://www.w3.org/2000/svg" viewBox="0 0 50 50" fill="white"><path d="M25 2C12.317 2 2 12.318 2 25s10.317 23 23 23 23-10.318 23-23S37.683 2 25 2zm5.873 4.94L25 20 19.127 6.94C20.978 6.336 22.95 6 25 6s4.022.336 5.873.94zM15.241 8.728L22.398 24h5.203l7.157-15.272a19.122 19.122 0 0 1 5.466 4.953L31.353 33l-3.693-7h-5.32l-3.693 7-8.872-19.319a19.136 19.136 0 0 1 5.466-4.953zM6 25c0-2.348.448-4.587 1.23-6.665L18.144 42.7l.021.008C11.06 39.955 6 33.065 6 25zm12.185 17.715L25 30l6.815 12.715C29.696 43.533 27.404 44 25 44s-4.696-.467-6.815-1.285zm13.649-.007l.021-.008L42.77 18.335A18.868 18.868 0 0 1 44 25c0 8.065-5.06 14.955-12.166 17.708z"/></svg>